<?xml version="1.0" standalone="no"?>
<!DOCTYPE svg PUBLIC "-//W3C//DTD SVG 20010904//EN"
 "http://www.w3.org/TR/2001/REC-SVG-20010904/DTD/svg10.dtd">
<svg version="1.0" xmlns="http://www.w3.org/2000/svg"
 width="700.000000pt" height="700.000000pt" viewBox="0 0 700.000000 700.000000"
 preserveAspectRatio="xMidYMid meet">
<metadata>
Created by potrace 1.14, written by Peter Selinger 2001-2017
</metadata>
<g transform="translate(0.000000,700.000000) scale(0.100000,-0.100000)"
fill="#000000" stroke="none">
<path d="M1103 5462 l-1092 -647 -1 -1321 0 -1322 1088 -643 c598 -354 1096
-644 1107 -644 11 1 306 171 655 379 567 337 638 377 660 368 14 -5 306 -176
649 -381 343 -204 628 -371 634 -371 6 0 502 291 1104 647 l1093 647 -2 1320
-3 1321 -1085 643 c-597 354 -1090 646 -1097 648 -6 3 -299 -165 -650 -373
-351 -208 -647 -378 -658 -377 -11 0 -307 169 -659 377 -351 207 -641 377
-645 376 -3 0 -497 -291 -1098 -647z m4211 -1147 l456 -250 0 -570 0 -570
-398 -223 c-218 -122 -425 -238 -458 -257 l-61 -35 -669 382 c-367 210 -673
381 -679 381 -6 0 -291 -165 -633 -366 -342 -202 -626 -368 -631 -369 -6 -2
-190 107 -410 242 l-401 245 0 570 0 570 405 248 406 249 626 -374 c344 -205
631 -374 637 -376 6 -1 308 169 671 377 363 209 665 379 671 378 7 -1 217
-114 468 -252z"/>
</g>
</svg>
